<?xml version="1.0" encoding="utf-8" standalone="no"?>
<!DOCTYPE svg PUBLIC "-//W3C//DTD SVG 1.1//EN"
  "http://www.w3.org/Graphics/SVG/1.1/DTD/svg11.dtd">
<svg xmlns:xlink="http://www.w3.org/1999/xlink" width="576pt" height="216pt" viewBox="0 0 576 216" xmlns="http://www.w3.org/2000/svg" version="1.1">
 <metadata>
  <rdf:RDF xmlns:dc="http://purl.org/dc/elements/1.1/" xmlns:cc="http://creativecommons.org/ns#" xmlns:rdf="http://www.w3.org/1999/02/22-rdf-syntax-ns#">
   <cc:Work>
    <dc:type rdf:resource="http://purl.org/dc/dcmitype/StillImage"/>
    <dc:date>2025-04-28T12:02:41.858710</dc:date>
    <dc:format>image/svg+xml</dc:format>
    <dc:creator>
     <cc:Agent>
      <dc:title>Matplotlib v3.10.1, https://matplotlib.org/</dc:title>
     </cc:Agent>
    </dc:creator>
   </cc:Work>
  </rdf:RDF>
 </metadata>
 <defs>
  <style type="text/css">*{stroke-linejoin: round; stroke-linecap: butt}</style>
 </defs>
 <g id="figure_1">
  <g id="patch_1">
   <path d="M 0 216 
L 576 216 
L 576 0 
L 0 0 
z
" style="fill: #ffffff"/>
  </g>
  <g id="axes_1">
   <g id="patch_2">
    <path d="M 46.37 174.04 
L 558.225 174.04 
L 558.225 10.8 
L 46.37 10.8 
z
" style="fill: #ffffff"/>
   </g>
   <g id="matplotlib.axis_1">
    <g id="xtick_1">
     <g id="line2d_1">
      <path d="M 46.37 174.04 
L 46.37 10.8 
" clip-path="url(#ped7b736419)" style="fill: none; stroke: #cccccc; stroke-width: 0.8; stroke-linecap: round"/>
     </g>
     <g id="text_1">
      <!-- 0.0 -->
      <g style="fill: #262626" transform="translate(39.42 188.197812) scale(0.1 -0.1)">
       <defs>
        <path id="ArialMT-30" d="M 266 2259 
Q 266 3072 433 3567 
Q 600 4063 929 4331 
Q 1259 4600 1759 4600 
Q 2128 4600 2406 4451 
Q 2684 4303 2865 4023 
Q 3047 3744 3150 3342 
Q 3253 2941 3253 2259 
Q 3253 1453 3087 958 
Q 2922 463 2592 192 
Q 2263 -78 1759 -78 
Q 1097 -78 719 397 
Q 266 969 266 2259 
z
M 844 2259 
Q 844 1131 1108 757 
Q 1372 384 1759 384 
Q 2147 384 2411 759 
Q 2675 1134 2675 2259 
Q 2675 3391 2411 3762 
Q 2147 4134 1753 4134 
Q 1366 4134 1134 3806 
Q 844 3388 844 2259 
z
" transform="scale(0.015625)"/>
        <path id="ArialMT-2e" d="M 581 0 
L 581 641 
L 1222 641 
L 1222 0 
L 581 0 
z
" transform="scale(0.015625)"/>
       </defs>
       <use xlink:href="#ArialMT-30"/>
       <use xlink:href="#ArialMT-2e" transform="translate(55.615234 0)"/>
       <use xlink:href="#ArialMT-30" transform="translate(83.398438 0)"/>
      </g>
     </g>
    </g>
    <g id="xtick_2">
     <g id="line2d_2">
      <path d="M 148.741 174.04 
L 148.741 10.8 
" clip-path="url(#ped7b736419)" style="fill: none; stroke: #cccccc; stroke-width: 0.8; stroke-linecap: round"/>
     </g>
     <g id="text_2">
      <!-- 0.2 -->
      <g style="fill: #262626" transform="translate(141.791 188.197812) scale(0.1 -0.1)">
       <defs>
        <path id="ArialMT-32" d="M 3222 541 
L 3222 0 
L 194 0 
Q 188 203 259 391 
Q 375 700 629 1000 
Q 884 1300 1366 1694 
Q 2113 2306 2375 2664 
Q 2638 3022 2638 3341 
Q 2638 3675 2398 3904 
Q 2159 4134 1775 4134 
Q 1369 4134 1125 3890 
Q 881 3647 878 3216 
L 300 3275 
Q 359 3922 746 4261 
Q 1134 4600 1788 4600 
Q 2447 4600 2831 4234 
Q 3216 3869 3216 3328 
Q 3216 3053 3103 2787 
Q 2991 2522 2730 2228 
Q 2469 1934 1863 1422 
Q 1356 997 1212 845 
Q 1069 694 975 541 
L 3222 541 
z
" transform="scale(0.015625)"/>
       </defs>
       <use xlink:href="#ArialMT-30"/>
       <use xlink:href="#ArialMT-2e" transform="translate(55.615234 0)"/>
       <use xlink:href="#ArialMT-32" transform="translate(83.398438 0)"/>
      </g>
     </g>
    </g>
    <g id="xtick_3">
     <g id="line2d_3">
      <path d="M 251.112 174.04 
L 251.112 10.8 
" clip-path="url(#ped7b736419)" style="fill: none; stroke: #cccccc; stroke-width: 0.8; stroke-linecap: round"/>
     </g>
     <g id="text_3">
      <!-- 0.4 -->
      <g style="fill: #262626" transform="translate(244.162 188.197812) scale(0.1 -0.1)">
       <defs>
        <path id="ArialMT-34" d="M 2069 0 
L 2069 1097 
L 81 1097 
L 81 1613 
L 2172 4581 
L 2631 4581 
L 2631 1613 
L 3250 1613 
L 3250 1097 
L 2631 1097 
L 2631 0 
L 2069 0 
z
M 2069 1613 
L 2069 3678 
L 634 1613 
L 2069 1613 
z
" transform="scale(0.015625)"/>
       </defs>
       <use xlink:href="#ArialMT-30"/>
       <use xlink:href="#ArialMT-2e" transform="translate(55.615234 0)"/>
       <use xlink:href="#ArialMT-34" transform="translate(83.398438 0)"/>
      </g>
     </g>
    </g>
    <g id="xtick_4">
     <g id="line2d_4">
      <path d="M 353.483 174.04 
L 353.483 10.8 
" clip-path="url(#ped7b736419)" style="fill: none; stroke: #cccccc; stroke-width: 0.8; stroke-linecap: round"/>
     </g>
     <g id="text_4">
      <!-- 0.6 -->
      <g style="fill: #262626" transform="translate(346.533 188.197812) scale(0.1 -0.1)">
       <defs>
        <path id="ArialMT-36" d="M 3184 3459 
L 2625 3416 
Q 2550 3747 2413 3897 
Q 2184 4138 1850 4138 
Q 1581 4138 1378 3988 
Q 1113 3794 959 3422 
Q 806 3050 800 2363 
Q 1003 2672 1297 2822 
Q 1591 2972 1913 2972 
Q 2475 2972 2870 2558 
Q 3266 2144 3266 1488 
Q 3266 1056 3080 686 
Q 2894 316 2569 119 
Q 2244 -78 1831 -78 
Q 1128 -78 684 439 
Q 241 956 241 2144 
Q 241 3472 731 4075 
Q 1159 4600 1884 4600 
Q 2425 4600 2770 4297 
Q 3116 3994 3184 3459 
z
M 888 1484 
Q 888 1194 1011 928 
Q 1134 663 1356 523 
Q 1578 384 1822 384 
Q 2178 384 2434 671 
Q 2691 959 2691 1453 
Q 2691 1928 2437 2201 
Q 2184 2475 1800 2475 
Q 1419 2475 1153 2201 
Q 888 1928 888 1484 
z
" transform="scale(0.015625)"/>
       </defs>
       <use xlink:href="#ArialMT-30"/>
       <use xlink:href="#ArialMT-2e" transform="translate(55.615234 0)"/>
       <use xlink:href="#ArialMT-36" transform="translate(83.398438 0)"/>
      </g>
     </g>
    </g>
    <g id="xtick_5">
     <g id="line2d_5">
      <path d="M 455.854 174.04 
L 455.854 10.8 
" clip-path="url(#ped7b736419)" style="fill: none; stroke: #cccccc; stroke-width: 0.8; stroke-linecap: round"/>
     </g>
     <g id="text_5">
      <!-- 0.8 -->
      <g style="fill: #262626" transform="translate(448.904 188.197812) scale(0.1 -0.1)">
       <defs>
        <path id="ArialMT-38" d="M 1131 2484 
Q 781 2613 612 2850 
Q 444 3088 444 3419 
Q 444 3919 803 4259 
Q 1163 4600 1759 4600 
Q 2359 4600 2725 4251 
Q 3091 3903 3091 3403 
Q 3091 3084 2923 2848 
Q 2756 2613 2416 2484 
Q 2838 2347 3058 2040 
Q 3278 1734 3278 1309 
Q 3278 722 2862 322 
Q 2447 -78 1769 -78 
Q 1091 -78 675 323 
Q 259 725 259 1325 
Q 259 1772 486 2073 
Q 713 2375 1131 2484 
z
M 1019 3438 
Q 1019 3113 1228 2906 
Q 1438 2700 1772 2700 
Q 2097 2700 2305 2904 
Q 2513 3109 2513 3406 
Q 2513 3716 2298 3927 
Q 2084 4138 1766 4138 
Q 1444 4138 1231 3931 
Q 1019 3725 1019 3438 
z
M 838 1322 
Q 838 1081 952 856 
Q 1066 631 1291 507 
Q 1516 384 1775 384 
Q 2178 384 2440 643 
Q 2703 903 2703 1303 
Q 2703 1709 2433 1975 
Q 2163 2241 1756 2241 
Q 1359 2241 1098 1978 
Q 838 1716 838 1322 
z
" transform="scale(0.015625)"/>
       </defs>
       <use xlink:href="#ArialMT-30"/>
       <use xlink:href="#ArialMT-2e" transform="translate(55.615234 0)"/>
       <use xlink:href="#ArialMT-38" transform="translate(83.398438 0)"/>
      </g>
     </g>
    </g>
    <g id="xtick_6">
     <g id="line2d_6">
      <path d="M 558.225 174.04 
L 558.225 10.8 
" clip-path="url(#ped7b736419)" style="fill: none; stroke: #cccccc; stroke-width: 0.8; stroke-linecap: round"/>
     </g>
     <g id="text_6">
      <!-- 1.0 -->
      <g style="fill: #262626" transform="translate(551.275 188.197812) scale(0.1 -0.1)">
       <defs>
        <path id="ArialMT-31" d="M 2384 0 
L 1822 0 
L 1822 3584 
Q 1619 3391 1289 3197 
Q 959 3003 697 2906 
L 697 3450 
Q 1169 3672 1522 3987 
Q 1875 4303 2022 4600 
L 2384 4600 
L 2384 0 
z
" transform="scale(0.015625)"/>
       </defs>
       <use xlink:href="#ArialMT-31"/>
       <use xlink:href="#ArialMT-2e" transform="translate(55.615234 0)"/>
       <use xlink:href="#ArialMT-30" transform="translate(83.398438 0)"/>
      </g>
     </g>
    </g>
    <g id="text_7">
     <!-- IoU-F1 score -->
     <g style="fill: #262626" transform="translate(273.402969 201.343125) scale(0.1 -0.1)">
      <defs>
       <path id="ArialMT-49" d="M 597 0 
L 597 4581 
L 1203 4581 
L 1203 0 
L 597 0 
z
" transform="scale(0.015625)"/>
       <path id="ArialMT-6f" d="M 213 1659 
Q 213 2581 725 3025 
Q 1153 3394 1769 3394 
Q 2453 3394 2887 2945 
Q 3322 2497 3322 1706 
Q 3322 1066 3130 698 
Q 2938 331 2570 128 
Q 2203 -75 1769 -75 
Q 1072 -75 642 372 
Q 213 819 213 1659 
z
M 791 1659 
Q 791 1022 1069 705 
Q 1347 388 1769 388 
Q 2188 388 2466 706 
Q 2744 1025 2744 1678 
Q 2744 2294 2464 2611 
Q 2184 2928 1769 2928 
Q 1347 2928 1069 2612 
Q 791 2297 791 1659 
z
" transform="scale(0.015625)"/>
       <path id="ArialMT-55" d="M 3500 4581 
L 4106 4581 
L 4106 1934 
Q 4106 1244 3950 837 
Q 3794 431 3386 176 
Q 2978 -78 2316 -78 
Q 1672 -78 1262 144 
Q 853 366 678 786 
Q 503 1206 503 1934 
L 503 4581 
L 1109 4581 
L 1109 1938 
Q 1109 1341 1220 1058 
Q 1331 775 1601 622 
Q 1872 469 2263 469 
Q 2931 469 3215 772 
Q 3500 1075 3500 1938 
L 3500 4581 
z
" transform="scale(0.015625)"/>
       <path id="ArialMT-2d" d="M 203 1375 
L 203 1941 
L 1931 1941 
L 1931 1375 
L 203 1375 
z
" transform="scale(0.015625)"/>
       <path id="ArialMT-46" d="M 525 0 
L 525 4581 
L 3616 4581 
L 3616 4041 
L 1131 4041 
L 1131 2622 
L 3281 2622 
L 3281 2081 
L 1131 2081 
L 1131 0 
L 525 0 
z
" transform="scale(0.015625)"/>
       <path id="ArialMT-20" transform="scale(0.015625)"/>
       <path id="ArialMT-73" d="M 197 991 
L 753 1078 
Q 800 744 1014 566 
Q 1228 388 1613 388 
Q 2000 388 2187 545 
Q 2375 703 2375 916 
Q 2375 1106 2209 1216 
Q 2094 1291 1634 1406 
Q 1016 1563 777 1677 
Q 538 1791 414 1992 
Q 291 2194 291 2438 
Q 291 2659 392 2848 
Q 494 3038 669 3163 
Q 800 3259 1026 3326 
Q 1253 3394 1513 3394 
Q 1903 3394 2198 3281 
Q 2494 3169 2634 2976 
Q 2775 2784 2828 2463 
L 2278 2388 
Q 2241 2644 2061 2787 
Q 1881 2931 1553 2931 
Q 1166 2931 1000 2803 
Q 834 2675 834 2503 
Q 834 2394 903 2306 
Q 972 2216 1119 2156 
Q 1203 2125 1616 2013 
Q 2213 1853 2448 1751 
Q 2684 1650 2818 1456 
Q 2953 1263 2953 975 
Q 2953 694 2789 445 
Q 2625 197 2315 61 
Q 2006 -75 1616 -75 
Q 969 -75 630 194 
Q 291 463 197 991 
z
" transform="scale(0.015625)"/>
       <path id="ArialMT-63" d="M 2588 1216 
L 3141 1144 
Q 3050 572 2676 248 
Q 2303 -75 1759 -75 
Q 1078 -75 664 370 
Q 250 816 250 1647 
Q 250 2184 428 2587 
Q 606 2991 970 3192 
Q 1334 3394 1763 3394 
Q 2303 3394 2647 3120 
Q 2991 2847 3088 2344 
L 2541 2259 
Q 2463 2594 2264 2762 
Q 2066 2931 1784 2931 
Q 1359 2931 1093 2626 
Q 828 2322 828 1663 
Q 828 994 1084 691 
Q 1341 388 1753 388 
Q 2084 388 2306 591 
Q 2528 794 2588 1216 
z
" transform="scale(0.015625)"/>
       <path id="ArialMT-72" d="M 416 0 
L 416 3319 
L 922 3319 
L 922 2816 
Q 1116 3169 1280 3281 
Q 1444 3394 1641 3394 
Q 1925 3394 2219 3213 
L 2025 2691 
Q 1819 2813 1613 2813 
Q 1428 2813 1281 2702 
Q 1134 2591 1072 2394 
Q 978 2094 978 1738 
L 978 0 
L 416 0 
z
" transform="scale(0.015625)"/>
       <path id="ArialMT-65" d="M 2694 1069 
L 3275 997 
Q 3138 488 2766 206 
Q 2394 -75 1816 -75 
Q 1088 -75 661 373 
Q 234 822 234 1631 
Q 234 2469 665 2931 
Q 1097 3394 1784 3394 
Q 2450 3394 2872 2941 
Q 3294 2488 3294 1666 
Q 3294 1616 3291 1516 
L 816 1516 
Q 847 969 1125 678 
Q 1403 388 1819 388 
Q 2128 388 2347 550 
Q 2566 713 2694 1069 
z
M 847 1978 
L 2700 1978 
Q 2663 2397 2488 2606 
Q 2219 2931 1791 2931 
Q 1403 2931 1139 2672 
Q 875 2413 847 1978 
z
" transform="scale(0.015625)"/>
      </defs>
      <use xlink:href="#ArialMT-49"/>
      <use xlink:href="#ArialMT-6f" transform="translate(27.783203 0)"/>
      <use xlink:href="#ArialMT-55" transform="translate(83.398438 0)"/>
      <use xlink:href="#ArialMT-2d" transform="translate(155.615234 0)"/>
      <use xlink:href="#ArialMT-46" transform="translate(188.916016 0)"/>
      <use xlink:href="#ArialMT-31" transform="translate(250 0)"/>
      <use xlink:href="#ArialMT-20" transform="translate(305.615234 0)"/>
      <use xlink:href="#ArialMT-73" transform="translate(333.398438 0)"/>
      <use xlink:href="#ArialMT-63" transform="translate(383.398438 0)"/>
      <use xlink:href="#ArialMT-6f" transform="translate(433.398438 0)"/>
      <use xlink:href="#ArialMT-72" transform="translate(489.013672 0)"/>
      <use xlink:href="#ArialMT-65" transform="translate(522.314453 0)"/>
     </g>
    </g>
   </g>
   <g id="matplotlib.axis_2">
    <g id="ytick_1">
     <g id="line2d_7">
      <path d="M 46.37 174.04 
L 558.225 174.04 
" clip-path="url(#ped7b736419)" style="fill: none; stroke: #cccccc; stroke-width: 0.8; stroke-linecap: round"/>
     </g>
     <g id="text_8">
      <!-- 0% -->
      <g style="fill: #262626" transform="translate(24.916875 177.618906) scale(0.1 -0.1)">
       <defs>
        <path id="ArialMT-25" d="M 372 3481 
Q 372 3972 619 4315 
Q 866 4659 1334 4659 
Q 1766 4659 2048 4351 
Q 2331 4044 2331 3447 
Q 2331 2866 2045 2552 
Q 1759 2238 1341 2238 
Q 925 2238 648 2547 
Q 372 2856 372 3481 
z
M 1350 4272 
Q 1141 4272 1002 4090 
Q 863 3909 863 3425 
Q 863 2984 1003 2804 
Q 1144 2625 1350 2625 
Q 1563 2625 1702 2806 
Q 1841 2988 1841 3469 
Q 1841 3913 1700 4092 
Q 1559 4272 1350 4272 
z
M 1353 -169 
L 3859 4659 
L 4316 4659 
L 1819 -169 
L 1353 -169 
z
M 3334 1075 
Q 3334 1569 3581 1911 
Q 3828 2253 4300 2253 
Q 4731 2253 5014 1945 
Q 5297 1638 5297 1041 
Q 5297 459 5011 145 
Q 4725 -169 4303 -169 
Q 3888 -169 3611 142 
Q 3334 453 3334 1075 
z
M 4316 1866 
Q 4103 1866 3964 1684 
Q 3825 1503 3825 1019 
Q 3825 581 3965 400 
Q 4106 219 4313 219 
Q 4528 219 4667 400 
Q 4806 581 4806 1063 
Q 4806 1506 4665 1686 
Q 4525 1866 4316 1866 
z
" transform="scale(0.015625)"/>
       </defs>
       <use xlink:href="#ArialMT-30"/>
       <use xlink:href="#ArialMT-25" transform="translate(55.615234 0)"/>
      </g>
     </g>
    </g>
    <g id="ytick_2">
     <g id="line2d_8">
      <path d="M 46.37 140.725714 
L 558.225 140.725714 
" clip-path="url(#ped7b736419)" style="fill: none; stroke: #cccccc; stroke-width: 0.8; stroke-linecap: round"/>
     </g>
     <g id="text_9">
      <!-- 1% -->
      <g style="fill: #262626" transform="translate(24.916875 144.304621) scale(0.1 -0.1)">
       <use xlink:href="#ArialMT-31"/>
       <use xlink:href="#ArialMT-25" transform="translate(55.615234 0)"/>
      </g>
     </g>
    </g>
    <g id="ytick_3">
     <g id="line2d_9">
      <path d="M 46.37 107.411429 
L 558.225 107.411429 
" clip-path="url(#ped7b736419)" style="fill: none; stroke: #cccccc; stroke-width: 0.8; stroke-linecap: round"/>
     </g>
     <g id="text_10">
      <!-- 2% -->
      <g style="fill: #262626" transform="translate(24.916875 110.990335) scale(0.1 -0.1)">
       <use xlink:href="#ArialMT-32"/>
       <use xlink:href="#ArialMT-25" transform="translate(55.615234 0)"/>
      </g>
     </g>
    </g>
    <g id="ytick_4">
     <g id="line2d_10">
      <path d="M 46.37 74.097143 
L 558.225 74.097143 
" clip-path="url(#ped7b736419)" style="fill: none; stroke: #cccccc; stroke-width: 0.8; stroke-linecap: round"/>
     </g>
     <g id="text_11">
      <!-- 3% -->
      <g style="fill: #262626" transform="translate(24.916875 77.676049) scale(0.1 -0.1)">
       <defs>
        <path id="ArialMT-33" d="M 269 1209 
L 831 1284 
Q 928 806 1161 595 
Q 1394 384 1728 384 
Q 2125 384 2398 659 
Q 2672 934 2672 1341 
Q 2672 1728 2419 1979 
Q 2166 2231 1775 2231 
Q 1616 2231 1378 2169 
L 1441 2663 
Q 1497 2656 1531 2656 
Q 1891 2656 2178 2843 
Q 2466 3031 2466 3422 
Q 2466 3731 2256 3934 
Q 2047 4138 1716 4138 
Q 1388 4138 1169 3931 
Q 950 3725 888 3313 
L 325 3413 
Q 428 3978 793 4289 
Q 1159 4600 1703 4600 
Q 2078 4600 2393 4439 
Q 2709 4278 2876 4000 
Q 3044 3722 3044 3409 
Q 3044 3113 2884 2869 
Q 2725 2625 2413 2481 
Q 2819 2388 3044 2092 
Q 3269 1797 3269 1353 
Q 3269 753 2831 336 
Q 2394 -81 1725 -81 
Q 1122 -81 723 278 
Q 325 638 269 1209 
z
" transform="scale(0.015625)"/>
       </defs>
       <use xlink:href="#ArialMT-33"/>
       <use xlink:href="#ArialMT-25" transform="translate(55.615234 0)"/>
      </g>
     </g>
    </g>
    <g id="ytick_5">
     <g id="line2d_11">
      <path d="M 46.37 40.782857 
L 558.225 40.782857 
" clip-path="url(#ped7b736419)" style="fill: none; stroke: #cccccc; stroke-width: 0.8; stroke-linecap: round"/>
     </g>
     <g id="text_12">
      <!-- 4% -->
      <g style="fill: #262626" transform="translate(24.916875 44.361763) scale(0.1 -0.1)">
       <use xlink:href="#ArialMT-34"/>
       <use xlink:href="#ArialMT-25" transform="translate(55.615234 0)"/>
      </g>
     </g>
    </g>
    <g id="text_13">
     <!-- Percentage of expert pairs -->
     <g style="fill: #262626" transform="translate(18.812188 151.060625) rotate(-90) scale(0.1 -0.1)">
      <defs>
       <path id="ArialMT-50" d="M 494 0 
L 494 4581 
L 2222 4581 
Q 2678 4581 2919 4538 
Q 3256 4481 3484 4323 
Q 3713 4166 3852 3881 
Q 3991 3597 3991 3256 
Q 3991 2672 3619 2267 
Q 3247 1863 2275 1863 
L 1100 1863 
L 1100 0 
L 494 0 
z
M 1100 2403 
L 2284 2403 
Q 2872 2403 3119 2622 
Q 3366 2841 3366 3238 
Q 3366 3525 3220 3729 
Q 3075 3934 2838 4000 
Q 2684 4041 2272 4041 
L 1100 4041 
L 1100 2403 
z
" transform="scale(0.015625)"/>
       <path id="ArialMT-6e" d="M 422 0 
L 422 3319 
L 928 3319 
L 928 2847 
Q 1294 3394 1984 3394 
Q 2284 3394 2536 3286 
Q 2788 3178 2913 3003 
Q 3038 2828 3088 2588 
Q 3119 2431 3119 2041 
L 3119 0 
L 2556 0 
L 2556 2019 
Q 2556 2363 2490 2533 
Q 2425 2703 2258 2804 
Q 2091 2906 1866 2906 
Q 1506 2906 1245 2678 
Q 984 2450 984 1813 
L 984 0 
L 422 0 
z
" transform="scale(0.015625)"/>
       <path id="ArialMT-74" d="M 1650 503 
L 1731 6 
Q 1494 -44 1306 -44 
Q 1000 -44 831 53 
Q 663 150 594 308 
Q 525 466 525 972 
L 525 2881 
L 113 2881 
L 113 3319 
L 525 3319 
L 525 4141 
L 1084 4478 
L 1084 3319 
L 1650 3319 
L 1650 2881 
L 1084 2881 
L 1084 941 
Q 1084 700 1114 631 
Q 1144 563 1211 522 
Q 1278 481 1403 481 
Q 1497 481 1650 503 
z
" transform="scale(0.015625)"/>
       <path id="ArialMT-61" d="M 2588 409 
Q 2275 144 1986 34 
Q 1697 -75 1366 -75 
Q 819 -75 525 192 
Q 231 459 231 875 
Q 231 1119 342 1320 
Q 453 1522 633 1644 
Q 813 1766 1038 1828 
Q 1203 1872 1538 1913 
Q 2219 1994 2541 2106 
Q 2544 2222 2544 2253 
Q 2544 2597 2384 2738 
Q 2169 2928 1744 2928 
Q 1347 2928 1158 2789 
Q 969 2650 878 2297 
L 328 2372 
Q 403 2725 575 2942 
Q 747 3159 1072 3276 
Q 1397 3394 1825 3394 
Q 2250 3394 2515 3294 
Q 2781 3194 2906 3042 
Q 3031 2891 3081 2659 
Q 3109 2516 3109 2141 
L 3109 1391 
Q 3109 606 3145 398 
Q 3181 191 3288 0 
L 2700 0 
Q 2613 175 2588 409 
z
M 2541 1666 
Q 2234 1541 1622 1453 
Q 1275 1403 1131 1340 
Q 988 1278 909 1158 
Q 831 1038 831 891 
Q 831 666 1001 516 
Q 1172 366 1500 366 
Q 1825 366 2078 508 
Q 2331 650 2450 897 
Q 2541 1088 2541 1459 
L 2541 1666 
z
" transform="scale(0.015625)"/>
       <path id="ArialMT-67" d="M 319 -275 
L 866 -356 
Q 900 -609 1056 -725 
Q 1266 -881 1628 -881 
Q 2019 -881 2231 -725 
Q 2444 -569 2519 -288 
Q 2563 -116 2559 434 
Q 2191 0 1641 0 
Q 956 0 581 494 
Q 206 988 206 1678 
Q 206 2153 378 2554 
Q 550 2956 876 3175 
Q 1203 3394 1644 3394 
Q 2231 3394 2613 2919 
L 2613 3319 
L 3131 3319 
L 3131 450 
Q 3131 -325 2973 -648 
Q 2816 -972 2473 -1159 
Q 2131 -1347 1631 -1347 
Q 1038 -1347 672 -1080 
Q 306 -813 319 -275 
z
M 784 1719 
Q 784 1066 1043 766 
Q 1303 466 1694 466 
Q 2081 466 2343 764 
Q 2606 1063 2606 1700 
Q 2606 2309 2336 2618 
Q 2066 2928 1684 2928 
Q 1309 2928 1046 2623 
Q 784 2319 784 1719 
z
" transform="scale(0.015625)"/>
       <path id="ArialMT-66" d="M 556 0 
L 556 2881 
L 59 2881 
L 59 3319 
L 556 3319 
L 556 3672 
Q 556 4006 616 4169 
Q 697 4388 901 4523 
Q 1106 4659 1475 4659 
Q 1713 4659 2000 4603 
L 1916 4113 
Q 1741 4144 1584 4144 
Q 1328 4144 1222 4034 
Q 1116 3925 1116 3625 
L 1116 3319 
L 1763 3319 
L 1763 2881 
L 1116 2881 
L 1116 0 
L 556 0 
z
" transform="scale(0.015625)"/>
       <path id="ArialMT-78" d="M 47 0 
L 1259 1725 
L 138 3319 
L 841 3319 
L 1350 2541 
Q 1494 2319 1581 2169 
Q 1719 2375 1834 2534 
L 2394 3319 
L 3066 3319 
L 1919 1756 
L 3153 0 
L 2463 0 
L 1781 1031 
L 1600 1309 
L 728 0 
L 47 0 
z
" transform="scale(0.015625)"/>
       <path id="ArialMT-70" d="M 422 -1272 
L 422 3319 
L 934 3319 
L 934 2888 
Q 1116 3141 1344 3267 
Q 1572 3394 1897 3394 
Q 2322 3394 2647 3175 
Q 2972 2956 3137 2557 
Q 3303 2159 3303 1684 
Q 3303 1175 3120 767 
Q 2938 359 2589 142 
Q 2241 -75 1856 -75 
Q 1575 -75 1351 44 
Q 1128 163 984 344 
L 984 -1272 
L 422 -1272 
z
M 931 1641 
Q 931 1000 1190 694 
Q 1450 388 1819 388 
Q 2194 388 2461 705 
Q 2728 1022 2728 1688 
Q 2728 2322 2467 2637 
Q 2206 2953 1844 2953 
Q 1484 2953 1207 2617 
Q 931 2281 931 1641 
z
" transform="scale(0.015625)"/>
       <path id="ArialMT-69" d="M 425 3934 
L 425 4581 
L 988 4581 
L 988 3934 
L 425 3934 
z
M 425 0 
L 425 3319 
L 988 3319 
L 988 0 
L 425 0 
z
" transform="scale(0.015625)"/>
      </defs>
      <use xlink:href="#ArialMT-50"/>
      <use xlink:href="#ArialMT-65" transform="translate(66.699219 0)"/>
      <use xlink:href="#ArialMT-72" transform="translate(122.314453 0)"/>
      <use xlink:href="#ArialMT-63" transform="translate(155.615234 0)"/>
      <use xlink:href="#ArialMT-65" transform="translate(205.615234 0)"/>
      <use xlink:href="#ArialMT-6e" transform="translate(261.230469 0)"/>
      <use xlink:href="#ArialMT-74" transform="translate(316.845703 0)"/>
      <use xlink:href="#ArialMT-61" transform="translate(344.628906 0)"/>
      <use xlink:href="#ArialMT-67" transform="translate(400.244141 0)"/>
      <use xlink:href="#ArialMT-65" transform="translate(455.859375 0)"/>
      <use xlink:href="#ArialMT-20" transform="translate(511.474609 0)"/>
      <use xlink:href="#ArialMT-6f" transform="translate(539.257812 0)"/>
      <use xlink:href="#ArialMT-66" transform="translate(594.873047 0)"/>
      <use xlink:href="#ArialMT-20" transform="translate(622.65625 0)"/>
      <use xlink:href="#ArialMT-65" transform="translate(650.439453 0)"/>
      <use xlink:href="#ArialMT-78" transform="translate(706.054688 0)"/>
      <use xlink:href="#ArialMT-70" transform="translate(756.054688 0)"/>
      <use xlink:href="#ArialMT-65" transform="translate(811.669922 0)"/>
      <use xlink:href="#ArialMT-72" transform="translate(867.285156 0)"/>
      <use xlink:href="#ArialMT-74" transform="translate(900.585938 0)"/>
      <use xlink:href="#ArialMT-20" transform="translate(928.369141 0)"/>
      <use xlink:href="#ArialMT-70" transform="translate(956.152344 0)"/>
      <use xlink:href="#ArialMT-61" transform="translate(1011.767578 0)"/>
      <use xlink:href="#ArialMT-69" transform="translate(1067.382812 0)"/>
      <use xlink:href="#ArialMT-72" transform="translate(1089.599609 0)"/>
      <use xlink:href="#ArialMT-73" transform="translate(1122.900391 0)"/>
     </g>
    </g>
   </g>
   <g id="patch_3">
    <path d="M 82.394985 174.04 
L 90.98094 174.04 
L 90.98094 166.946986 
L 82.394985 166.946986 
z
" clip-path="url(#ped7b736419)" style="fill: #0000ff; opacity: 0.2; stroke: #ffffff; stroke-linejoin: miter"/>
   </g>
   <g id="patch_4">
    <path d="M 90.98094 174.04 
L 99.566895 174.04 
L 99.566895 174.04 
L 90.98094 174.04 
z
" clip-path="url(#ped7b736419)" style="fill: #0000ff; opacity: 0.2; stroke: #ffffff; stroke-linejoin: miter"/>
   </g>
   <g id="patch_5">
    <path d="M 99.566895 174.04 
L 108.15285 174.04 
L 108.15285 174.04 
L 99.566895 174.04 
z
" clip-path="url(#ped7b736419)" style="fill: #0000ff; opacity: 0.2; stroke: #ffffff; stroke-linejoin: miter"/>
   </g>
   <g id="patch_6">
    <path d="M 108.15285 174.04 
L 116.738805 174.04 
L 116.738805 166.946986 
L 108.15285 166.946986 
z
" clip-path="url(#ped7b736419)" style="fill: #0000ff; opacity: 0.2; stroke: #ffffff; stroke-linejoin: miter"/>
   </g>
   <g id="patch_7">
    <path d="M 116.738805 174.04 
L 125.32476 174.04 
L 125.32476 166.946986 
L 116.738805 166.946986 
z
" clip-path="url(#ped7b736419)" style="fill: #0000ff; opacity: 0.2; stroke: #ffffff; stroke-linejoin: miter"/>
   </g>
   <g id="patch_8">
    <path d="M 125.32476 174.04 
L 133.910714 174.04 
L 133.910714 145.667943 
L 125.32476 145.667943 
z
" clip-path="url(#ped7b736419)" style="fill: #0000ff; opacity: 0.2; stroke: #ffffff; stroke-linejoin: miter"/>
   </g>
   <g id="patch_9">
    <path d="M 133.910714 174.04 
L 142.496669 174.04 
L 142.496669 174.04 
L 133.910714 174.04 
z
" clip-path="url(#ped7b736419)" style="fill: #0000ff; opacity: 0.2; stroke: #ffffff; stroke-linejoin: miter"/>
   </g>
   <g id="patch_10">
    <path d="M 142.496669 174.04 
L 151.082624 174.04 
L 151.082624 145.667943 
L 142.496669 145.667943 
z
" clip-path="url(#ped7b736419)" style="fill: #0000ff; opacity: 0.2; stroke: #ffffff; stroke-linejoin: miter"/>
   </g>
   <g id="patch_11">
    <path d="M 151.082624 174.04 
L 159.668579 174.04 
L 159.668579 166.946986 
L 151.082624 166.946986 
z
" clip-path="url(#ped7b736419)" style="fill: #0000ff; opacity: 0.2; stroke: #ffffff; stroke-linejoin: miter"/>
   </g>
   <g id="patch_12">
    <path d="M 159.668579 174.04 
L 168.254534 174.04 
L 168.254534 174.04 
L 159.668579 174.04 
z
" clip-path="url(#ped7b736419)" style="fill: #0000ff; opacity: 0.2; stroke: #ffffff; stroke-linejoin: miter"/>
   </g>
   <g id="patch_13">
    <path d="M 168.254534 174.04 
L 176.840489 174.04 
L 176.840489 159.853972 
L 168.254534 159.853972 
z
" clip-path="url(#ped7b736419)" style="fill: #0000ff; opacity: 0.2; stroke: #ffffff; stroke-linejoin: miter"/>
   </g>
   <g id="patch_14">
    <path d="M 176.840489 174.04 
L 185.426443 174.04 
L 185.426443 166.946986 
L 176.840489 166.946986 
z
" clip-path="url(#ped7b736419)" style="fill: #0000ff; opacity: 0.2; stroke: #ffffff; stroke-linejoin: miter"/>
   </g>
   <g id="patch_15">
    <path d="M 185.426443 174.04 
L 194.012398 174.04 
L 194.012398 174.04 
L 185.426443 174.04 
z
" clip-path="url(#ped7b736419)" style="fill: #0000ff; opacity: 0.2; stroke: #ffffff; stroke-linejoin: miter"/>
   </g>
   <g id="patch_16">
    <path d="M 194.012398 174.04 
L 202.598353 174.04 
L 202.598353 159.853972 
L 194.012398 159.853972 
z
" clip-path="url(#ped7b736419)" style="fill: #0000ff; opacity: 0.2; stroke: #ffffff; stroke-linejoin: miter"/>
   </g>
   <g id="patch_17">
    <path d="M 202.598353 174.04 
L 211.184308 174.04 
L 211.184308 145.667943 
L 202.598353 145.667943 
z
" clip-path="url(#ped7b736419)" style="fill: #0000ff; opacity: 0.2; stroke: #ffffff; stroke-linejoin: miter"/>
   </g>
   <g id="patch_18">
    <path d="M 211.184308 174.04 
L 219.770263 174.04 
L 219.770263 152.760958 
L 211.184308 152.760958 
z
" clip-path="url(#ped7b736419)" style="fill: #0000ff; opacity: 0.2; stroke: #ffffff; stroke-linejoin: miter"/>
   </g>
   <g id="patch_19">
    <path d="M 219.770263 174.04 
L 228.356218 174.04 
L 228.356218 152.760958 
L 219.770263 152.760958 
z
" clip-path="url(#ped7b736419)" style="fill: #0000ff; opacity: 0.2; stroke: #ffffff; stroke-linejoin: miter"/>
   </g>
   <g id="patch_20">
    <path d="M 228.356218 174.04 
L 236.942172 174.04 
L 236.942172 131.481915 
L 228.356218 131.481915 
z
" clip-path="url(#ped7b736419)" style="fill: #0000ff; opacity: 0.2; stroke: #ffffff; stroke-linejoin: miter"/>
   </g>
   <g id="patch_21">
    <path d="M 236.942172 174.04 
L 245.528127 174.04 
L 245.528127 152.760958 
L 236.942172 152.760958 
z
" clip-path="url(#ped7b736419)" style="fill: #0000ff; opacity: 0.2; stroke: #ffffff; stroke-linejoin: miter"/>
   </g>
   <g id="patch_22">
    <path d="M 245.528127 174.04 
L 254.114082 174.04 
L 254.114082 145.667943 
L 245.528127 145.667943 
z
" clip-path="url(#ped7b736419)" style="fill: #0000ff; opacity: 0.2; stroke: #ffffff; stroke-linejoin: miter"/>
   </g>
   <g id="patch_23">
    <path d="M 254.114082 174.04 
L 262.700037 174.04 
L 262.700037 131.481915 
L 254.114082 131.481915 
z
" clip-path="url(#ped7b736419)" style="fill: #0000ff; opacity: 0.2; stroke: #ffffff; stroke-linejoin: miter"/>
   </g>
   <g id="patch_24">
    <path d="M 262.700037 174.04 
L 271.285992 174.04 
L 271.285992 152.760958 
L 262.700037 152.760958 
z
" clip-path="url(#ped7b736419)" style="fill: #0000ff; opacity: 0.2; stroke: #ffffff; stroke-linejoin: miter"/>
   </g>
   <g id="patch_25">
    <path d="M 271.285992 174.04 
L 279.871947 174.04 
L 279.871947 110.202873 
L 271.285992 110.202873 
z
" clip-path="url(#ped7b736419)" style="fill: #0000ff; opacity: 0.2; stroke: #ffffff; stroke-linejoin: miter"/>
   </g>
   <g id="patch_26">
    <path d="M 279.871947 174.04 
L 288.457901 174.04 
L 288.457901 138.574929 
L 279.871947 138.574929 
z
" clip-path="url(#ped7b736419)" style="fill: #0000ff; opacity: 0.2; stroke: #ffffff; stroke-linejoin: miter"/>
   </g>
   <g id="patch_27">
    <path d="M 288.457901 174.04 
L 297.043856 174.04 
L 297.043856 145.667943 
L 288.457901 145.667943 
z
" clip-path="url(#ped7b736419)" style="fill: #0000ff; opacity: 0.2; stroke: #ffffff; stroke-linejoin: miter"/>
   </g>
   <g id="patch_28">
    <path d="M 297.043856 174.04 
L 305.629811 174.04 
L 305.629811 138.574929 
L 297.043856 138.574929 
z
" clip-path="url(#ped7b736419)" style="fill: #0000ff; opacity: 0.2; stroke: #ffffff; stroke-linejoin: miter"/>
   </g>
   <g id="patch_29">
    <path d="M 305.629811 174.04 
L 314.215766 174.04 
L 314.215766 110.202873 
L 305.629811 110.202873 
z
" clip-path="url(#ped7b736419)" style="fill: #0000ff; opacity: 0.2; stroke: #ffffff; stroke-linejoin: miter"/>
   </g>
   <g id="patch_30">
    <path d="M 314.215766 174.04 
L 322.801721 174.04 
L 322.801721 145.667943 
L 314.215766 145.667943 
z
" clip-path="url(#ped7b736419)" style="fill: #0000ff; opacity: 0.2; stroke: #ffffff; stroke-linejoin: miter"/>
   </g>
   <g id="patch_31">
    <path d="M 322.801721 174.04 
L 331.387676 174.04 
L 331.387676 117.295887 
L 322.801721 117.295887 
z
" clip-path="url(#ped7b736419)" style="fill: #0000ff; opacity: 0.2; stroke: #ffffff; stroke-linejoin: miter"/>
   </g>
   <g id="patch_32">
    <path d="M 331.387676 174.04 
L 339.97363 174.04 
L 339.97363 103.109859 
L 331.387676 103.109859 
z
" clip-path="url(#ped7b736419)" style="fill: #0000ff; opacity: 0.2; stroke: #ffffff; stroke-linejoin: miter"/>
   </g>
   <g id="patch_33">
    <path d="M 339.97363 174.04 
L 348.559585 174.04 
L 348.559585 96.016845 
L 339.97363 96.016845 
z
" clip-path="url(#ped7b736419)" style="fill: #0000ff; opacity: 0.2; stroke: #ffffff; stroke-linejoin: miter"/>
   </g>
   <g id="patch_34">
    <path d="M 348.559585 174.04 
L 357.14554 174.04 
L 357.14554 46.365746 
L 348.559585 46.365746 
z
" clip-path="url(#ped7b736419)" style="fill: #0000ff; opacity: 0.2; stroke: #ffffff; stroke-linejoin: miter"/>
   </g>
   <g id="patch_35">
    <path d="M 357.14554 174.04 
L 365.731495 174.04 
L 365.731495 96.016845 
L 357.14554 96.016845 
z
" clip-path="url(#ped7b736419)" style="fill: #0000ff; opacity: 0.2; stroke: #ffffff; stroke-linejoin: miter"/>
   </g>
   <g id="patch_36">
    <path d="M 365.731495 174.04 
L 374.31745 174.04 
L 374.31745 96.016845 
L 365.731495 96.016845 
z
" clip-path="url(#ped7b736419)" style="fill: #0000ff; opacity: 0.2; stroke: #ffffff; stroke-linejoin: miter"/>
   </g>
   <g id="patch_37">
    <path d="M 374.31745 174.04 
L 382.903405 174.04 
L 382.903405 117.295887 
L 374.31745 117.295887 
z
" clip-path="url(#ped7b736419)" style="fill: #0000ff; opacity: 0.2; stroke: #ffffff; stroke-linejoin: miter"/>
   </g>
   <g id="patch_38">
    <path d="M 382.903405 174.04 
L 391.48936 174.04 
L 391.48936 88.92383 
L 382.903405 88.92383 
z
" clip-path="url(#ped7b736419)" style="fill: #0000ff; opacity: 0.2; stroke: #ffffff; stroke-linejoin: miter"/>
   </g>
   <g id="patch_39">
    <path d="M 391.48936 174.04 
L 400.075314 174.04 
L 400.075314 60.551774 
L 391.48936 60.551774 
z
" clip-path="url(#ped7b736419)" style="fill: #0000ff; opacity: 0.2; stroke: #ffffff; stroke-linejoin: miter"/>
   </g>
   <g id="patch_40">
    <path d="M 400.075314 174.04 
L 408.661269 174.04 
L 408.661269 46.365746 
L 400.075314 46.365746 
z
" clip-path="url(#ped7b736419)" style="fill: #0000ff; opacity: 0.2; stroke: #ffffff; stroke-linejoin: miter"/>
   </g>
   <g id="patch_41">
    <path d="M 408.661269 174.04 
L 417.247224 174.04 
L 417.247224 74.737802 
L 408.661269 74.737802 
z
" clip-path="url(#ped7b736419)" style="fill: #0000ff; opacity: 0.2; stroke: #ffffff; stroke-linejoin: miter"/>
   </g>
   <g id="patch_42">
    <path d="M 417.247224 174.04 
L 425.833179 174.04 
L 425.833179 67.644788 
L 417.247224 67.644788 
z
" clip-path="url(#ped7b736419)" style="fill: #0000ff; opacity: 0.2; stroke: #ffffff; stroke-linejoin: miter"/>
   </g>
   <g id="patch_43">
    <path d="M 425.833179 174.04 
L 434.419134 174.04 
L 434.419134 88.92383 
L 425.833179 88.92383 
z
" clip-path="url(#ped7b736419)" style="fill: #0000ff; opacity: 0.2; stroke: #ffffff; stroke-linejoin: miter"/>
   </g>
   <g id="patch_44">
    <path d="M 434.419134 174.04 
L 443.005089 174.04 
L 443.005089 124.388901 
L 434.419134 124.388901 
z
" clip-path="url(#ped7b736419)" style="fill: #0000ff; opacity: 0.2; stroke: #ffffff; stroke-linejoin: miter"/>
   </g>
   <g id="patch_45">
    <path d="M 443.005089 174.04 
L 451.591043 174.04 
L 451.591043 110.202873 
L 443.005089 110.202873 
z
" clip-path="url(#ped7b736419)" style="fill: #0000ff; opacity: 0.2; stroke: #ffffff; stroke-linejoin: miter"/>
   </g>
   <g id="patch_46">
    <path d="M 451.591043 174.04 
L 460.176998 174.04 
L 460.176998 124.388901 
L 451.591043 124.388901 
z
" clip-path="url(#ped7b736419)" style="fill: #0000ff; opacity: 0.2; stroke: #ffffff; stroke-linejoin: miter"/>
   </g>
   <g id="patch_47">
    <path d="M 460.176998 174.04 
L 468.762953 174.04 
L 468.762953 159.853972 
L 460.176998 159.853972 
z
" clip-path="url(#ped7b736419)" style="fill: #0000ff; opacity: 0.2; stroke: #ffffff; stroke-linejoin: miter"/>
   </g>
   <g id="patch_48">
    <path d="M 468.762953 174.04 
L 477.348908 174.04 
L 477.348908 145.667943 
L 468.762953 145.667943 
z
" clip-path="url(#ped7b736419)" style="fill: #0000ff; opacity: 0.2; stroke: #ffffff; stroke-linejoin: miter"/>
   </g>
   <g id="patch_49">
    <path d="M 477.348908 174.04 
L 485.934863 174.04 
L 485.934863 166.946986 
L 477.348908 166.946986 
z
" clip-path="url(#ped7b736419)" style="fill: #0000ff; opacity: 0.2; stroke: #ffffff; stroke-linejoin: miter"/>
   </g>
   <g id="patch_50">
    <path d="M 485.934863 174.04 
L 494.520818 174.04 
L 494.520818 174.04 
L 485.934863 174.04 
z
" clip-path="url(#ped7b736419)" style="fill: #0000ff; opacity: 0.2; stroke: #ffffff; stroke-linejoin: miter"/>
   </g>
   <g id="patch_51">
    <path d="M 494.520818 174.04 
L 503.106772 174.04 
L 503.106772 174.04 
L 494.520818 174.04 
z
" clip-path="url(#ped7b736419)" style="fill: #0000ff; opacity: 0.2; stroke: #ffffff; stroke-linejoin: miter"/>
   </g>
   <g id="patch_52">
    <path d="M 503.106772 174.04 
L 511.692727 174.04 
L 511.692727 166.946986 
L 503.106772 166.946986 
z
" clip-path="url(#ped7b736419)" style="fill: #0000ff; opacity: 0.2; stroke: #ffffff; stroke-linejoin: miter"/>
   </g>
   <g id="PathCollection_1">
    <defs>
     <path id="m4f16bbc8cf" d="M -1.666667 5 
L 1.666667 5 
L 1.666667 1.666667 
L 5 1.666667 
L 5 -1.666667 
L 1.666667 -1.666667 
L 1.666667 -5 
L -1.666667 -5 
L -1.666667 -1.666667 
L -5 -1.666667 
L -5 1.666667 
L -1.666667 1.666667 
z
" style="stroke: #808080"/>
    </defs>
    <g clip-path="url(#ped7b736419)">
     <use xlink:href="#m4f16bbc8cf" x="473.768925" y="34.12" style="fill: #808080; stroke: #808080"/>
    </g>
   </g>
   <g id="FillBetweenPolyCollection_1">
    <defs>
     <path id="mecc2607caa" d="M 455.187873 -41.96 
L 372.331586 -41.96 
L 372.331586 -181.88 
L 455.187873 -181.88 
L 455.187873 -181.88 
L 455.187873 -41.96 
z
" style="stroke: #808080; stroke-opacity: 0.2"/>
    </defs>
    <g clip-path="url(#ped7b736419)">
     <use xlink:href="#mecc2607caa" x="0" y="216" style="fill: #808080; fill-opacity: 0.2; stroke: #808080; stroke-opacity: 0.2"/>
    </g>
   </g>
   <g id="PathCollection_2">
    <defs>
     <path id="mc0947f4d46" d="M 0 -5 
L -1.12257 -1.545085 
L -4.755283 -1.545085 
L -1.816356 0.59017 
L -2.938926 4.045085 
L -0 1.90983 
L 2.938926 4.045085 
L 1.816356 0.59017 
L 4.755283 -1.545085 
L 1.12257 -1.545085 
z
" style="stroke: #808080"/>
    </defs>
    <g clip-path="url(#ped7b736419)">
     <use xlink:href="#mc0947f4d46" x="413.75973" y="34.12" style="fill: #808080; stroke: #808080"/>
    </g>
   </g>
   <g id="PathCollection_3">
    <defs>
     <path id="m1b32a6ea0f" d="M 0 5 
C 1.326016 5 2.597899 4.473168 3.535534 3.535534 
C 4.473168 2.597899 5 1.326016 5 0 
C 5 -1.326016 4.473168 -2.597899 3.535534 -3.535534 
C 2.597899 -4.473168 1.326016 -5 0 -5 
C -1.326016 -5 -2.597899 -4.473168 -3.535534 -3.535534 
C -4.473168 -2.597899 -5 -1.326016 -5 0 
C -5 1.326016 -4.473168 2.597899 -3.535534 3.535534 
C -2.597899 4.473168 -1.326016 5 0 5 
z
" style="stroke: #808080"/>
    </defs>
    <g clip-path="url(#ped7b736419)">
     <use xlink:href="#m1b32a6ea0f" x="318.67686" y="40.782857" style="fill: #808080; stroke: #808080"/>
    </g>
   </g>
   <g id="PathCollection_4">
    <defs>
     <path id="m87e9d0be2a" d="M -5 5 
L 5 5 
L 5 -5 
L -5 -5 
z
" style="stroke: #808080"/>
    </defs>
    <g clip-path="url(#ped7b736419)">
     <use xlink:href="#m87e9d0be2a" x="437.42722" y="40.782857" style="fill: #808080; stroke: #808080"/>
    </g>
   </g>
   <g id="PathCollection_5">
    <defs>
     <path id="md8a0029e58" d="M -0 7.071068 
L 7.071068 0 
L 0 -7.071068 
L -7.071068 -0 
z
" style="stroke: #ff0000"/>
    </defs>
    <g clip-path="url(#ped7b736419)">
     <use xlink:href="#md8a0029e58" x="353.483" y="34.12" style="fill: #ff0000; stroke: #ff0000"/>
    </g>
   </g>
   <g id="PathCollection_6">
    <defs>
     <path id="m4d3fbf5028" d="M 0 -5 
L -5 5 
L 5 5 
z
" style="stroke: #ff8c00"/>
    </defs>
    <g clip-path="url(#ped7b736419)">
     <use xlink:href="#m4d3fbf5028" x="321.74799" y="34.12" style="fill: #ff8c00; stroke: #ff8c00"/>
    </g>
   </g>
   <g id="line2d_12">
    <path d="M 1.430309 174.029584 
L 28.169223 173.90399 
L 43.024175 173.642766 
L 54.908137 173.233116 
L 63.821108 172.757982 
L 72.734079 172.095404 
L 81.647051 171.204859 
L 90.560022 170.063323 
L 99.472993 168.696375 
L 120.269926 165.328945 
L 126.211907 164.569608 
L 132.153888 163.986973 
L 138.095869 163.593838 
L 147.00884 163.310001 
L 164.834782 163.02184 
L 170.776763 162.688423 
L 176.718744 162.10589 
L 182.660725 161.229679 
L 188.602706 160.047266 
L 194.544687 158.578831 
L 200.486667 156.873028 
L 209.399639 154.022488 
L 227.225581 148.188115 
L 236.138553 145.560291 
L 245.051524 143.202966 
L 253.964495 141.073321 
L 280.703409 134.927002 
L 286.64539 133.257152 
L 292.587371 131.308405 
L 298.529352 128.999724 
L 304.471332 126.271187 
L 310.413313 123.101278 
L 316.355294 119.520428 
L 322.297275 115.615827 
L 340.123217 103.438843 
L 346.065198 99.742663 
L 352.007179 96.398372 
L 357.94916 93.420473 
L 363.891141 90.77508 
L 369.833122 88.411674 
L 375.775103 86.303035 
L 381.717083 84.47994 
L 384.688074 83.705648 
L 387.659064 83.048257 
L 390.630055 82.53153 
L 393.601045 82.181702 
L 396.572036 82.026098 
L 399.543026 82.09164 
L 402.514016 82.40332 
L 405.485007 82.982783 
L 408.455997 83.847087 
L 411.426988 85.007735 
L 414.397978 86.470025 
L 417.368969 88.232743 
L 420.339959 90.288192 
L 423.310949 92.622534 
L 426.28194 95.216397 
L 429.25293 98.045678 
L 432.223921 101.082481 
L 438.165901 107.654097 
L 444.107882 114.669707 
L 458.962834 132.478661 
L 464.904815 139.137774 
L 470.846796 145.28157 
L 473.817787 148.124219 
L 476.788777 150.800086 
L 479.759767 153.301984 
L 482.730758 155.625317 
L 485.701748 157.768027 
L 488.672739 159.730499 
L 491.643729 161.515432 
L 494.61472 163.127654 
L 497.58571 164.573896 
L 500.5567 165.862522 
L 503.527691 167.003214 
L 506.498681 168.006646 
L 512.440662 169.647335 
L 518.382643 170.87705 
L 524.324624 171.784042 
L 530.266605 172.445668 
L 539.179576 173.112067 
L 548.092547 173.518456 
L 559.976509 173.816976 
L 577 173.987006 
L 577 173.987006 
" clip-path="url(#ped7b736419)" style="fill: none; stroke: #0000ff; stroke-width: 1.5; stroke-linecap: round"/>
   </g>
   <g id="LineCollection_1">
    <path d="M 473.768925 174.04 
L 473.768925 34.12 
" clip-path="url(#ped7b736419)" style="fill: none; stroke: #808080; stroke-width: 1.5"/>
   </g>
   <g id="LineCollection_2">
    <path d="M 413.75973 174.04 
L 413.75973 34.12 
" clip-path="url(#ped7b736419)" style="fill: none; stroke: #808080; stroke-width: 1.5"/>
   </g>
   <g id="LineCollection_3">
    <path d="M 318.67686 174.04 
L 318.67686 40.782857 
" clip-path="url(#ped7b736419)" style="fill: none; stroke: #808080; stroke-width: 1.5"/>
   </g>
   <g id="LineCollection_4">
    <path d="M 437.42722 174.04 
L 437.42722 40.782857 
" clip-path="url(#ped7b736419)" style="fill: none; stroke: #808080; stroke-width: 1.5"/>
   </g>
   <g id="LineCollection_5">
    <path d="M 353.483 174.04 
L 353.483 34.12 
" clip-path="url(#ped7b736419)" style="fill: none; stroke: #ff0000; stroke-width: 1.5"/>
   </g>
   <g id="LineCollection_6">
    <path d="M 321.74799 174.04 
L 321.74799 34.12 
" clip-path="url(#ped7b736419)" style="fill: none; stroke: #ff8c00; stroke-width: 1.5"/>
   </g>
   <g id="patch_53">
    <path d="M 46.37 174.04 
L 46.37 10.8 
" style="fill: none; stroke: #cccccc; stroke-width: 0.8; stroke-linejoin: miter; stroke-linecap: square"/>
   </g>
   <g id="patch_54">
    <path d="M 558.225 174.04 
L 558.225 10.8 
" style="fill: none; stroke: #cccccc; stroke-width: 0.8; stroke-linejoin: miter; stroke-linecap: square"/>
   </g>
   <g id="patch_55">
    <path d="M 46.37 174.04 
L 558.225 174.04 
" style="fill: none; stroke: #cccccc; stroke-width: 0.8; stroke-linejoin: miter; stroke-linecap: square"/>
   </g>
   <g id="patch_56">
    <path d="M 46.37 10.8 
L 558.225 10.8 
" style="fill: none; stroke: #cccccc; stroke-width: 0.8; stroke-linejoin: miter; stroke-linecap: square"/>
   </g>
   <g id="text_14">
    <!-- 0.83 -->
    <g style="fill: #262626" transform="translate(464.038456 25.469643) scale(0.1 -0.1)">
     <use xlink:href="#ArialMT-30"/>
     <use xlink:href="#ArialMT-2e" transform="translate(55.615234 0)"/>
     <use xlink:href="#ArialMT-38" transform="translate(83.398438 0)"/>
     <use xlink:href="#ArialMT-33" transform="translate(139.013672 0)"/>
    </g>
   </g>
   <g id="text_15">
    <!-- 0.72 -->
    <g style="fill: #262626" transform="translate(404.029261 25.469643) scale(0.1 -0.1)">
     <defs>
      <path id="ArialMT-37" d="M 303 3981 
L 303 4522 
L 3269 4522 
L 3269 4084 
Q 2831 3619 2401 2847 
Q 1972 2075 1738 1259 
Q 1569 684 1522 0 
L 944 0 
Q 953 541 1156 1306 
Q 1359 2072 1739 2783 
Q 2119 3494 2547 3981 
L 303 3981 
z
" transform="scale(0.015625)"/>
     </defs>
     <use xlink:href="#ArialMT-30"/>
     <use xlink:href="#ArialMT-2e" transform="translate(55.615234 0)"/>
     <use xlink:href="#ArialMT-37" transform="translate(83.398438 0)"/>
     <use xlink:href="#ArialMT-32" transform="translate(139.013672 0)"/>
    </g>
   </g>
   <g id="text_16">
    <!-- 0.53 -->
    <g style="fill: #262626" transform="translate(308.946391 32.1325) scale(0.1 -0.1)">
     <defs>
      <path id="ArialMT-35" d="M 266 1200 
L 856 1250 
Q 922 819 1161 601 
Q 1400 384 1738 384 
Q 2144 384 2425 690 
Q 2706 997 2706 1503 
Q 2706 1984 2436 2262 
Q 2166 2541 1728 2541 
Q 1456 2541 1237 2417 
Q 1019 2294 894 2097 
L 366 2166 
L 809 4519 
L 3088 4519 
L 3088 3981 
L 1259 3981 
L 1013 2750 
Q 1425 3038 1878 3038 
Q 2478 3038 2890 2622 
Q 3303 2206 3303 1553 
Q 3303 931 2941 478 
Q 2500 -78 1738 -78 
Q 1113 -78 717 272 
Q 322 622 266 1200 
z
" transform="scale(0.015625)"/>
     </defs>
     <use xlink:href="#ArialMT-30"/>
     <use xlink:href="#ArialMT-2e" transform="translate(55.615234 0)"/>
     <use xlink:href="#ArialMT-35" transform="translate(83.398438 0)"/>
     <use xlink:href="#ArialMT-33" transform="translate(139.013672 0)"/>
    </g>
   </g>
   <g id="text_17">
    <!-- 0.76 -->
    <g style="fill: #262626" transform="translate(427.696751 32.1325) scale(0.1 -0.1)">
     <use xlink:href="#ArialMT-30"/>
     <use xlink:href="#ArialMT-2e" transform="translate(55.615234 0)"/>
     <use xlink:href="#ArialMT-37" transform="translate(83.398438 0)"/>
     <use xlink:href="#ArialMT-36" transform="translate(139.013672 0)"/>
    </g>
   </g>
   <g id="text_18">
    <!-- 0.60 -->
    <g style="fill: #262626" transform="translate(343.752531 25.469643) scale(0.1 -0.1)">
     <use xlink:href="#ArialMT-30"/>
     <use xlink:href="#ArialMT-2e" transform="translate(55.615234 0)"/>
     <use xlink:href="#ArialMT-36" transform="translate(83.398438 0)"/>
     <use xlink:href="#ArialMT-30" transform="translate(139.013672 0)"/>
    </g>
   </g>
   <g id="text_19">
    <!-- 0.54 -->
    <g style="fill: #262626" transform="translate(312.017521 25.469643) scale(0.1 -0.1)">
     <use xlink:href="#ArialMT-30"/>
     <use xlink:href="#ArialMT-2e" transform="translate(55.615234 0)"/>
     <use xlink:href="#ArialMT-35" transform="translate(83.398438 0)"/>
     <use xlink:href="#ArialMT-34" transform="translate(139.013672 0)"/>
    </g>
   </g>
   <g id="legend_1">
    <g id="patch_57">
     <path d="M 53.37 118.973438 
L 240.787188 118.973438 
Q 242.787188 118.973438 242.787188 116.973438 
L 242.787188 17.8 
Q 242.787188 15.8 240.787188 15.8 
L 53.37 15.8 
Q 51.37 15.8 51.37 17.8 
L 51.37 116.973438 
Q 51.37 118.973438 53.37 118.973438 
z
" style="fill: #ffffff; opacity: 0.8; stroke: #cccccc; stroke-linejoin: miter"/>
    </g>
    <g id="text_20">
     <!-- Agreement levels between SUMOv2 and: -->
     <g style="fill: #262626" transform="translate(55.37 27.085938) scale(0.1 -0.1)">
      <defs>
       <path id="ArialMT-41" d="M -9 0 
L 1750 4581 
L 2403 4581 
L 4278 0 
L 3588 0 
L 3053 1388 
L 1138 1388 
L 634 0 
L -9 0 
z
M 1313 1881 
L 2866 1881 
L 2388 3150 
Q 2169 3728 2063 4100 
Q 1975 3659 1816 3225 
L 1313 1881 
z
" transform="scale(0.015625)"/>
       <path id="ArialMT-6d" d="M 422 0 
L 422 3319 
L 925 3319 
L 925 2853 
Q 1081 3097 1340 3245 
Q 1600 3394 1931 3394 
Q 2300 3394 2536 3241 
Q 2772 3088 2869 2813 
Q 3263 3394 3894 3394 
Q 4388 3394 4653 3120 
Q 4919 2847 4919 2278 
L 4919 0 
L 4359 0 
L 4359 2091 
Q 4359 2428 4304 2576 
Q 4250 2725 4106 2815 
Q 3963 2906 3769 2906 
Q 3419 2906 3187 2673 
Q 2956 2441 2956 1928 
L 2956 0 
L 2394 0 
L 2394 2156 
Q 2394 2531 2256 2718 
Q 2119 2906 1806 2906 
Q 1569 2906 1367 2781 
Q 1166 2656 1075 2415 
Q 984 2175 984 1722 
L 984 0 
L 422 0 
z
" transform="scale(0.015625)"/>
       <path id="ArialMT-6c" d="M 409 0 
L 409 4581 
L 972 4581 
L 972 0 
L 409 0 
z
" transform="scale(0.015625)"/>
       <path id="ArialMT-76" d="M 1344 0 
L 81 3319 
L 675 3319 
L 1388 1331 
Q 1503 1009 1600 663 
Q 1675 925 1809 1294 
L 2547 3319 
L 3125 3319 
L 1869 0 
L 1344 0 
z
" transform="scale(0.015625)"/>
       <path id="ArialMT-62" d="M 941 0 
L 419 0 
L 419 4581 
L 981 4581 
L 981 2947 
Q 1338 3394 1891 3394 
Q 2197 3394 2470 3270 
Q 2744 3147 2920 2923 
Q 3097 2700 3197 2384 
Q 3297 2069 3297 1709 
Q 3297 856 2875 390 
Q 2453 -75 1863 -75 
Q 1275 -75 941 416 
L 941 0 
z
M 934 1684 
Q 934 1088 1097 822 
Q 1363 388 1816 388 
Q 2184 388 2453 708 
Q 2722 1028 2722 1663 
Q 2722 2313 2464 2622 
Q 2206 2931 1841 2931 
Q 1472 2931 1203 2611 
Q 934 2291 934 1684 
z
" transform="scale(0.015625)"/>
       <path id="ArialMT-77" d="M 1034 0 
L 19 3319 
L 600 3319 
L 1128 1403 
L 1325 691 
Q 1338 744 1497 1375 
L 2025 3319 
L 2603 3319 
L 3100 1394 
L 3266 759 
L 3456 1400 
L 4025 3319 
L 4572 3319 
L 3534 0 
L 2950 0 
L 2422 1988 
L 2294 2553 
L 1622 0 
L 1034 0 
z
" transform="scale(0.015625)"/>
       <path id="ArialMT-53" d="M 288 1472 
L 859 1522 
Q 900 1178 1048 958 
Q 1197 738 1509 602 
Q 1822 466 2213 466 
Q 2559 466 2825 569 
Q 3091 672 3220 851 
Q 3350 1031 3350 1244 
Q 3350 1459 3225 1620 
Q 3100 1781 2813 1891 
Q 2628 1963 1997 2114 
Q 1366 2266 1113 2400 
Q 784 2572 623 2826 
Q 463 3081 463 3397 
Q 463 3744 659 4045 
Q 856 4347 1234 4503 
Q 1613 4659 2075 4659 
Q 2584 4659 2973 4495 
Q 3363 4331 3572 4012 
Q 3781 3694 3797 3291 
L 3216 3247 
Q 3169 3681 2898 3903 
Q 2628 4125 2100 4125 
Q 1550 4125 1298 3923 
Q 1047 3722 1047 3438 
Q 1047 3191 1225 3031 
Q 1400 2872 2139 2705 
Q 2878 2538 3153 2413 
Q 3553 2228 3743 1945 
Q 3934 1663 3934 1294 
Q 3934 928 3725 604 
Q 3516 281 3123 101 
Q 2731 -78 2241 -78 
Q 1619 -78 1198 103 
Q 778 284 539 648 
Q 300 1013 288 1472 
z
" transform="scale(0.015625)"/>
       <path id="ArialMT-4d" d="M 475 0 
L 475 4581 
L 1388 4581 
L 2472 1338 
Q 2622 884 2691 659 
Q 2769 909 2934 1394 
L 4031 4581 
L 4847 4581 
L 4847 0 
L 4263 0 
L 4263 3834 
L 2931 0 
L 2384 0 
L 1059 3900 
L 1059 0 
L 475 0 
z
" transform="scale(0.015625)"/>
       <path id="ArialMT-4f" d="M 309 2231 
Q 309 3372 921 4017 
Q 1534 4663 2503 4663 
Q 3138 4663 3647 4359 
Q 4156 4056 4423 3514 
Q 4691 2972 4691 2284 
Q 4691 1588 4409 1038 
Q 4128 488 3612 205 
Q 3097 -78 2500 -78 
Q 1853 -78 1343 234 
Q 834 547 571 1087 
Q 309 1628 309 2231 
z
M 934 2222 
Q 934 1394 1379 917 
Q 1825 441 2497 441 
Q 3181 441 3623 922 
Q 4066 1403 4066 2288 
Q 4066 2847 3877 3264 
Q 3688 3681 3323 3911 
Q 2959 4141 2506 4141 
Q 1863 4141 1398 3698 
Q 934 3256 934 2222 
z
" transform="scale(0.015625)"/>
       <path id="ArialMT-64" d="M 2575 0 
L 2575 419 
Q 2259 -75 1647 -75 
Q 1250 -75 917 144 
Q 584 363 401 755 
Q 219 1147 219 1656 
Q 219 2153 384 2558 
Q 550 2963 881 3178 
Q 1213 3394 1622 3394 
Q 1922 3394 2156 3267 
Q 2391 3141 2538 2938 
L 2538 4581 
L 3097 4581 
L 3097 0 
L 2575 0 
z
M 797 1656 
Q 797 1019 1065 703 
Q 1334 388 1700 388 
Q 2069 388 2326 689 
Q 2584 991 2584 1609 
Q 2584 2291 2321 2609 
Q 2059 2928 1675 2928 
Q 1300 2928 1048 2622 
Q 797 2316 797 1656 
z
" transform="scale(0.015625)"/>
       <path id="ArialMT-3a" d="M 578 2678 
L 578 3319 
L 1219 3319 
L 1219 2678 
L 578 2678 
z
M 578 0 
L 578 641 
L 1219 641 
L 1219 0 
L 578 0 
z
" transform="scale(0.015625)"/>
      </defs>
      <use xlink:href="#ArialMT-41"/>
      <use xlink:href="#ArialMT-67" transform="translate(66.699219 0)"/>
      <use xlink:href="#ArialMT-72" transform="translate(122.314453 0)"/>
      <use xlink:href="#ArialMT-65" transform="translate(155.615234 0)"/>
      <use xlink:href="#ArialMT-65" transform="translate(211.230469 0)"/>
      <use xlink:href="#ArialMT-6d" transform="translate(266.845703 0)"/>
      <use xlink:href="#ArialMT-65" transform="translate(350.146484 0)"/>
      <use xlink:href="#ArialMT-6e" transform="translate(405.761719 0)"/>
      <use xlink:href="#ArialMT-74" transform="translate(461.376953 0)"/>
      <use xlink:href="#ArialMT-20" transform="translate(489.160156 0)"/>
      <use xlink:href="#ArialMT-6c" transform="translate(516.943359 0)"/>
      <use xlink:href="#ArialMT-65" transform="translate(539.160156 0)"/>
      <use xlink:href="#ArialMT-76" transform="translate(594.775391 0)"/>
      <use xlink:href="#ArialMT-65" transform="translate(644.775391 0)"/>
      <use xlink:href="#ArialMT-6c" transform="translate(700.390625 0)"/>
      <use xlink:href="#ArialMT-73" transform="translate(722.607422 0)"/>
      <use xlink:href="#ArialMT-20" transform="translate(772.607422 0)"/>
      <use xlink:href="#ArialMT-62" transform="translate(800.390625 0)"/>
      <use xlink:href="#ArialMT-65" transform="translate(856.005859 0)"/>
      <use xlink:href="#ArialMT-74" transform="translate(911.621094 0)"/>
      <use xlink:href="#ArialMT-77" transform="translate(939.404297 0)"/>
      <use xlink:href="#ArialMT-65" transform="translate(1011.621094 0)"/>
      <use xlink:href="#ArialMT-65" transform="translate(1067.236328 0)"/>
      <use xlink:href="#ArialMT-6e" transform="translate(1122.851562 0)"/>
      <use xlink:href="#ArialMT-20" transform="translate(1178.466797 0)"/>
      <use xlink:href="#ArialMT-53" transform="translate(1206.25 0)"/>
      <use xlink:href="#ArialMT-55" transform="translate(1272.949219 0)"/>
      <use xlink:href="#ArialMT-4d" transform="translate(1345.166016 0)"/>
      <use xlink:href="#ArialMT-4f" transform="translate(1428.466797 0)"/>
      <use xlink:href="#ArialMT-76" transform="translate(1506.25 0)"/>
      <use xlink:href="#ArialMT-32" transform="translate(1556.25 0)"/>
      <use xlink:href="#ArialMT-20" transform="translate(1611.865234 0)"/>
      <use xlink:href="#ArialMT-61" transform="translate(1639.648438 0)"/>
      <use xlink:href="#ArialMT-6e" transform="translate(1695.263672 0)"/>
      <use xlink:href="#ArialMT-64" transform="translate(1750.878906 0)"/>
      <use xlink:href="#ArialMT-3a" transform="translate(1806.494141 0)"/>
     </g>
    </g>
    <g id="PathCollection_7">
     <g>
      <use xlink:href="#m4f16bbc8cf" x="65.37" y="38.851562" style="fill: #808080; stroke: #808080"/>
     </g>
    </g>
    <g id="text_21">
     <!-- MODA expert consensus -->
     <g style="fill: #262626" transform="translate(83.37 41.476562) scale(0.1 -0.1)">
      <defs>
       <path id="ArialMT-44" d="M 494 0 
L 494 4581 
L 2072 4581 
Q 2606 4581 2888 4516 
Q 3281 4425 3559 4188 
Q 3922 3881 4101 3404 
Q 4281 2928 4281 2316 
Q 4281 1794 4159 1391 
Q 4038 988 3847 723 
Q 3656 459 3429 307 
Q 3203 156 2883 78 
Q 2563 0 2147 0 
L 494 0 
z
M 1100 541 
L 2078 541 
Q 2531 541 2789 625 
Q 3047 709 3200 863 
Q 3416 1078 3536 1442 
Q 3656 1806 3656 2325 
Q 3656 3044 3420 3430 
Q 3184 3816 2847 3947 
Q 2603 4041 2063 4041 
L 1100 4041 
L 1100 541 
z
" transform="scale(0.015625)"/>
       <path id="ArialMT-75" d="M 2597 0 
L 2597 488 
Q 2209 -75 1544 -75 
Q 1250 -75 995 37 
Q 741 150 617 320 
Q 494 491 444 738 
Q 409 903 409 1263 
L 409 3319 
L 972 3319 
L 972 1478 
Q 972 1038 1006 884 
Q 1059 663 1231 536 
Q 1403 409 1656 409 
Q 1909 409 2131 539 
Q 2353 669 2445 892 
Q 2538 1116 2538 1541 
L 2538 3319 
L 3100 3319 
L 3100 0 
L 2597 0 
z
" transform="scale(0.015625)"/>
      </defs>
      <use xlink:href="#ArialMT-4d"/>
      <use xlink:href="#ArialMT-4f" transform="translate(83.300781 0)"/>
      <use xlink:href="#ArialMT-44" transform="translate(161.083984 0)"/>
      <use xlink:href="#ArialMT-41" transform="translate(233.300781 0)"/>
      <use xlink:href="#ArialMT-20" transform="translate(294.5 0)"/>
      <use xlink:href="#ArialMT-65" transform="translate(322.283203 0)"/>
      <use xlink:href="#ArialMT-78" transform="translate(377.898438 0)"/>
      <use xlink:href="#ArialMT-70" transform="translate(427.898438 0)"/>
      <use xlink:href="#ArialMT-65" transform="translate(483.513672 0)"/>
      <use xlink:href="#ArialMT-72" transform="translate(539.128906 0)"/>
      <use xlink:href="#ArialMT-74" transform="translate(572.429688 0)"/>
      <use xlink:href="#ArialMT-20" transform="translate(600.212891 0)"/>
      <use xlink:href="#ArialMT-63" transform="translate(627.996094 0)"/>
      <use xlink:href="#ArialMT-6f" transform="translate(677.996094 0)"/>
      <use xlink:href="#ArialMT-6e" transform="translate(733.611328 0)"/>
      <use xlink:href="#ArialMT-73" transform="translate(789.226562 0)"/>
      <use xlink:href="#ArialMT-65" transform="translate(839.226562 0)"/>
      <use xlink:href="#ArialMT-6e" transform="translate(894.841797 0)"/>
      <use xlink:href="#ArialMT-73" transform="translate(950.457031 0)"/>
      <use xlink:href="#ArialMT-75" transform="translate(1000.457031 0)"/>
      <use xlink:href="#ArialMT-73" transform="translate(1056.072266 0)"/>
     </g>
    </g>
    <g id="PathCollection_8">
     <g>
      <use xlink:href="#mc0947f4d46" x="65.37" y="53.125" style="fill: #808080; stroke: #808080"/>
     </g>
    </g>
    <g id="text_22">
     <!-- MODA idv. experts (mean) -->
     <g style="fill: #262626" transform="translate(83.37 55.75) scale(0.1 -0.1)">
      <defs>
       <path id="ArialMT-28" d="M 1497 -1347 
Q 1031 -759 709 28 
Q 388 816 388 1659 
Q 388 2403 628 3084 
Q 909 3875 1497 4659 
L 1900 4659 
Q 1522 4009 1400 3731 
Q 1209 3300 1100 2831 
Q 966 2247 966 1656 
Q 966 153 1900 -1347 
L 1497 -1347 
z
" transform="scale(0.015625)"/>
       <path id="ArialMT-29" d="M 791 -1347 
L 388 -1347 
Q 1322 153 1322 1656 
Q 1322 2244 1188 2822 
Q 1081 3291 891 3722 
Q 769 4003 388 4659 
L 791 4659 
Q 1378 3875 1659 3084 
Q 1900 2403 1900 1659 
Q 1900 816 1576 28 
Q 1253 -759 791 -1347 
z
" transform="scale(0.015625)"/>
      </defs>
      <use xlink:href="#ArialMT-4d"/>
      <use xlink:href="#ArialMT-4f" transform="translate(83.300781 0)"/>
      <use xlink:href="#ArialMT-44" transform="translate(161.083984 0)"/>
      <use xlink:href="#ArialMT-41" transform="translate(233.300781 0)"/>
      <use xlink:href="#ArialMT-20" transform="translate(294.5 0)"/>
      <use xlink:href="#ArialMT-69" transform="translate(322.283203 0)"/>
      <use xlink:href="#ArialMT-64" transform="translate(344.5 0)"/>
      <use xlink:href="#ArialMT-76" transform="translate(400.115234 0)"/>
      <use xlink:href="#ArialMT-2e" transform="translate(442.740234 0)"/>
      <use xlink:href="#ArialMT-20" transform="translate(470.523438 0)"/>
      <use xlink:href="#ArialMT-65" transform="translate(498.306641 0)"/>
      <use xlink:href="#ArialMT-78" transform="translate(553.921875 0)"/>
      <use xlink:href="#ArialMT-70" transform="translate(603.921875 0)"/>
      <use xlink:href="#ArialMT-65" transform="translate(659.537109 0)"/>
      <use xlink:href="#ArialMT-72" transform="translate(715.152344 0)"/>
      <use xlink:href="#ArialMT-74" transform="translate(748.453125 0)"/>
      <use xlink:href="#ArialMT-73" transform="translate(776.236328 0)"/>
      <use xlink:href="#ArialMT-20" transform="translate(826.236328 0)"/>
      <use xlink:href="#ArialMT-28" transform="translate(854.019531 0)"/>
      <use xlink:href="#ArialMT-6d" transform="translate(887.320312 0)"/>
      <use xlink:href="#ArialMT-65" transform="translate(970.621094 0)"/>
      <use xlink:href="#ArialMT-61" transform="translate(1026.236328 0)"/>
      <use xlink:href="#ArialMT-6e" transform="translate(1081.851562 0)"/>
      <use xlink:href="#ArialMT-29" transform="translate(1137.466797 0)"/>
     </g>
    </g>
    <g id="PathCollection_9">
     <g>
      <use xlink:href="#m1b32a6ea0f" x="65.37" y="67.417188" style="fill: #808080; stroke: #808080"/>
     </g>
    </g>
    <g id="text_23">
     <!-- Dreams expert 1 -->
     <g style="fill: #262626" transform="translate(83.37 70.042188) scale(0.1 -0.1)">
      <use xlink:href="#ArialMT-44"/>
      <use xlink:href="#ArialMT-72" transform="translate(72.216797 0)"/>
      <use xlink:href="#ArialMT-65" transform="translate(105.517578 0)"/>
      <use xlink:href="#ArialMT-61" transform="translate(161.132812 0)"/>
      <use xlink:href="#ArialMT-6d" transform="translate(216.748047 0)"/>
      <use xlink:href="#ArialMT-73" transform="translate(300.048828 0)"/>
      <use xlink:href="#ArialMT-20" transform="translate(350.048828 0)"/>
      <use xlink:href="#ArialMT-65" transform="translate(377.832031 0)"/>
      <use xlink:href="#ArialMT-78" transform="translate(433.447266 0)"/>
      <use xlink:href="#ArialMT-70" transform="translate(483.447266 0)"/>
      <use xlink:href="#ArialMT-65" transform="translate(539.0625 0)"/>
      <use xlink:href="#ArialMT-72" transform="translate(594.677734 0)"/>
      <use xlink:href="#ArialMT-74" transform="translate(627.978516 0)"/>
      <use xlink:href="#ArialMT-20" transform="translate(655.761719 0)"/>
      <use xlink:href="#ArialMT-31" transform="translate(683.544922 0)"/>
     </g>
    </g>
    <g id="PathCollection_10">
     <g>
      <use xlink:href="#m87e9d0be2a" x="65.37" y="81.592187" style="fill: #808080; stroke: #808080"/>
     </g>
    </g>
    <g id="text_24">
     <!-- Dreams expert 2 -->
     <g style="fill: #262626" transform="translate(83.37 84.217187) scale(0.1 -0.1)">
      <use xlink:href="#ArialMT-44"/>
      <use xlink:href="#ArialMT-72" transform="translate(72.216797 0)"/>
      <use xlink:href="#ArialMT-65" transform="translate(105.517578 0)"/>
      <use xlink:href="#ArialMT-61" transform="translate(161.132812 0)"/>
      <use xlink:href="#ArialMT-6d" transform="translate(216.748047 0)"/>
      <use xlink:href="#ArialMT-73" transform="translate(300.048828 0)"/>
      <use xlink:href="#ArialMT-20" transform="translate(350.048828 0)"/>
      <use xlink:href="#ArialMT-65" transform="translate(377.832031 0)"/>
      <use xlink:href="#ArialMT-78" transform="translate(433.447266 0)"/>
      <use xlink:href="#ArialMT-70" transform="translate(483.447266 0)"/>
      <use xlink:href="#ArialMT-65" transform="translate(539.0625 0)"/>
      <use xlink:href="#ArialMT-72" transform="translate(594.677734 0)"/>
      <use xlink:href="#ArialMT-74" transform="translate(627.978516 0)"/>
      <use xlink:href="#ArialMT-20" transform="translate(655.761719 0)"/>
      <use xlink:href="#ArialMT-32" transform="translate(683.544922 0)"/>
     </g>
    </g>
    <g id="PathCollection_11">
     <g>
      <use xlink:href="#md8a0029e58" x="65.37" y="95.859375" style="fill: #ff0000; stroke: #ff0000"/>
     </g>
    </g>
    <g id="text_25">
     <!-- BD expert (expert sleep stages) -->
     <g style="fill: #262626" transform="translate(83.37 98.484375) scale(0.1 -0.1)">
      <defs>
       <path id="ArialMT-42" d="M 469 0 
L 469 4581 
L 2188 4581 
Q 2713 4581 3030 4442 
Q 3347 4303 3526 4014 
Q 3706 3725 3706 3409 
Q 3706 3116 3547 2856 
Q 3388 2597 3066 2438 
Q 3481 2316 3704 2022 
Q 3928 1728 3928 1328 
Q 3928 1006 3792 729 
Q 3656 453 3456 303 
Q 3256 153 2954 76 
Q 2653 0 2216 0 
L 469 0 
z
M 1075 2656 
L 2066 2656 
Q 2469 2656 2644 2709 
Q 2875 2778 2992 2937 
Q 3109 3097 3109 3338 
Q 3109 3566 3000 3739 
Q 2891 3913 2687 3977 
Q 2484 4041 1991 4041 
L 1075 4041 
L 1075 2656 
z
M 1075 541 
L 2216 541 
Q 2509 541 2628 563 
Q 2838 600 2978 687 
Q 3119 775 3209 942 
Q 3300 1109 3300 1328 
Q 3300 1584 3169 1773 
Q 3038 1963 2805 2039 
Q 2572 2116 2134 2116 
L 1075 2116 
L 1075 541 
z
" transform="scale(0.015625)"/>
      </defs>
      <use xlink:href="#ArialMT-42"/>
      <use xlink:href="#ArialMT-44" transform="translate(66.699219 0)"/>
      <use xlink:href="#ArialMT-20" transform="translate(138.916016 0)"/>
      <use xlink:href="#ArialMT-65" transform="translate(166.699219 0)"/>
      <use xlink:href="#ArialMT-78" transform="translate(222.314453 0)"/>
      <use xlink:href="#ArialMT-70" transform="translate(272.314453 0)"/>
      <use xlink:href="#ArialMT-65" transform="translate(327.929688 0)"/>
      <use xlink:href="#ArialMT-72" transform="translate(383.544922 0)"/>
      <use xlink:href="#ArialMT-74" transform="translate(416.845703 0)"/>
      <use xlink:href="#ArialMT-20" transform="translate(444.628906 0)"/>
      <use xlink:href="#ArialMT-28" transform="translate(472.412109 0)"/>
      <use xlink:href="#ArialMT-65" transform="translate(505.712891 0)"/>
      <use xlink:href="#ArialMT-78" transform="translate(561.328125 0)"/>
      <use xlink:href="#ArialMT-70" transform="translate(611.328125 0)"/>
      <use xlink:href="#ArialMT-65" transform="translate(666.943359 0)"/>
      <use xlink:href="#ArialMT-72" transform="translate(722.558594 0)"/>
      <use xlink:href="#ArialMT-74" transform="translate(755.859375 0)"/>
      <use xlink:href="#ArialMT-20" transform="translate(783.642578 0)"/>
      <use xlink:href="#ArialMT-73" transform="translate(811.425781 0)"/>
      <use xlink:href="#ArialMT-6c" transform="translate(861.425781 0)"/>
      <use xlink:href="#ArialMT-65" transform="translate(883.642578 0)"/>
      <use xlink:href="#ArialMT-65" transform="translate(939.257812 0)"/>
      <use xlink:href="#ArialMT-70" transform="translate(994.873047 0)"/>
      <use xlink:href="#ArialMT-20" transform="translate(1050.488281 0)"/>
      <use xlink:href="#ArialMT-73" transform="translate(1078.271484 0)"/>
      <use xlink:href="#ArialMT-74" transform="translate(1128.271484 0)"/>
      <use xlink:href="#ArialMT-61" transform="translate(1156.054688 0)"/>
      <use xlink:href="#ArialMT-67" transform="translate(1211.669922 0)"/>
      <use xlink:href="#ArialMT-65" transform="translate(1267.285156 0)"/>
      <use xlink:href="#ArialMT-73" transform="translate(1322.900391 0)"/>
      <use xlink:href="#ArialMT-29" transform="translate(1372.900391 0)"/>
     </g>
    </g>
    <g id="PathCollection_12">
     <g>
      <use xlink:href="#m4d3fbf5028" x="65.37" y="110.24375" style="fill: #ff8c00; stroke: #ff8c00"/>
     </g>
    </g>
    <g id="text_26">
     <!-- BD expert (model sleep stages) -->
     <g style="fill: #262626" transform="translate(83.37 112.86875) scale(0.1 -0.1)">
      <use xlink:href="#ArialMT-42"/>
      <use xlink:href="#ArialMT-44" transform="translate(66.699219 0)"/>
      <use xlink:href="#ArialMT-20" transform="translate(138.916016 0)"/>
      <use xlink:href="#ArialMT-65" transform="translate(166.699219 0)"/>
      <use xlink:href="#ArialMT-78" transform="translate(222.314453 0)"/>
      <use xlink:href="#ArialMT-70" transform="translate(272.314453 0)"/>
      <use xlink:href="#ArialMT-65" transform="translate(327.929688 0)"/>
      <use xlink:href="#ArialMT-72" transform="translate(383.544922 0)"/>
      <use xlink:href="#ArialMT-74" transform="translate(416.845703 0)"/>
      <use xlink:href="#ArialMT-20" transform="translate(444.628906 0)"/>
      <use xlink:href="#ArialMT-28" transform="translate(472.412109 0)"/>
      <use xlink:href="#ArialMT-6d" transform="translate(505.712891 0)"/>
      <use xlink:href="#ArialMT-6f" transform="translate(589.013672 0)"/>
      <use xlink:href="#ArialMT-64" transform="translate(644.628906 0)"/>
      <use xlink:href="#ArialMT-65" transform="translate(700.244141 0)"/>
      <use xlink:href="#ArialMT-6c" transform="translate(755.859375 0)"/>
      <use xlink:href="#ArialMT-20" transform="translate(778.076172 0)"/>
      <use xlink:href="#ArialMT-73" transform="translate(805.859375 0)"/>
      <use xlink:href="#ArialMT-6c" transform="translate(855.859375 0)"/>
      <use xlink:href="#ArialMT-65" transform="translate(878.076172 0)"/>
      <use xlink:href="#ArialMT-65" transform="translate(933.691406 0)"/>
      <use xlink:href="#ArialMT-70" transform="translate(989.306641 0)"/>
      <use xlink:href="#ArialMT-20" transform="translate(1044.921875 0)"/>
      <use xlink:href="#ArialMT-73" transform="translate(1072.705078 0)"/>
      <use xlink:href="#ArialMT-74" transform="translate(1122.705078 0)"/>
      <use xlink:href="#ArialMT-61" transform="translate(1150.488281 0)"/>
      <use xlink:href="#ArialMT-67" transform="translate(1206.103516 0)"/>
      <use xlink:href="#ArialMT-65" transform="translate(1261.71875 0)"/>
      <use xlink:href="#ArialMT-73" transform="translate(1317.333984 0)"/>
      <use xlink:href="#ArialMT-29" transform="translate(1367.333984 0)"/>
     </g>
    </g>
   </g>
  </g>
 </g>
 <defs>
  <clipPath id="ped7b736419">
   <rect x="46.37" y="10.8" width="511.855" height="163.24"/>
  </clipPath>
 </defs>
</svg>
